<svg width="4224" height="1056" viewBox="0 0 4224 1056" fill="none" xmlns="http://www.w3.org/2000/svg">
<path d="M2.25 656V464H290.25C298.917 464 306.417 461 312.75 455C319.083 448.667 322.25 441 322.25 432V400H2.25V336H386.25V464C386.25 482 379.917 497.167 367.25 509.5C354.583 521.833 339.583 528 322.25 528H66.25V656H2.25ZM449.75 656V336H513.75V592H833.75C833.75 610 827.417 625.167 814.75 637.5C802.083 649.833 787.083 656 769.75 656H449.75ZM897.25 656V464H1281.25V656H1217.25V528H961.25V656H897.25ZM961.25 400C943.25 400 928.083 393.833 915.75 381.5C903.417 368.833 897.25 353.667 897.25 336H1281.25C1281.25 354 1274.92 369.167 1262.25 381.5C1249.58 393.833 1234.58 400 1217.25 400H961.25ZM1504.75 656V560L1344.75 400V336H1408.75V368L1536.75 496L1664.75 368V336H1728.75V400L1568.75 560V656H1504.75ZM2143.75 656V400H2047.75C2029.75 400 2014.58 393.833 2002.25 381.5C1989.92 368.833 1983.75 353.667 1983.75 336H2367.75C2367.75 354 2361.42 369.167 2348.75 381.5C2336.08 393.833 2321.08 400 2303.75 400H2207.75V656H2143.75ZM2495.25 656C2477.25 656 2462.08 649.833 2449.75 637.5C2437.42 624.833 2431.25 609.667 2431.25 592H2815.25C2815.25 610 2808.92 625.167 2796.25 637.5C2783.58 649.833 2768.58 656 2751.25 656H2495.25ZM2495.25 528C2477.25 528 2462.08 521.833 2449.75 509.5C2437.42 496.833 2431.25 481.667 2431.25 464H2815.25C2815.25 482 2808.92 497.167 2796.25 509.5C2783.58 521.833 2768.58 528 2751.25 528H2495.25ZM2495.25 400C2477.25 400 2462.08 393.833 2449.75 381.5C2437.42 368.833 2431.25 353.667 2431.25 336H2815.25C2815.25 354 2808.92 369.167 2796.25 381.5C2783.58 393.833 2768.58 400 2751.25 400H2495.25ZM2878.75 656C2878.75 638.333 2884.92 623.333 2897.25 611C2909.92 598.333 2925.08 592 2942.75 592H3198.75V528H2878.75V336H3262.75C3262.75 354 3256.42 369.167 3243.75 381.5C3231.08 393.833 3216.08 400 3198.75 400H2942.75V464H3262.75V656H2878.75ZM3326.25 656V336H3390.25V592H3710.25C3710.25 610 3703.92 625.167 3691.25 637.5C3678.58 649.833 3663.58 656 3646.25 656H3326.25ZM3773.75 656V464H4157.75V656H4093.75V528H3837.75V656H3773.75ZM3837.75 400C3819.75 400 3804.58 393.833 3792.25 381.5C3779.92 368.833 3773.75 353.667 3773.75 336H4157.75C4157.75 354 4151.42 369.167 4138.75 381.5C4126.08 393.833 4111.08 400 4093.75 400H3837.75Z" fill="black"/>
</svg>
