<svg width="1024" height="1024" viewBox="0 0 1024 1024" fill="none" xmlns="http://www.w3.org/2000/svg">
<path d="M169.75 463V389.5H280C283.318 389.5 286.189 388.352 288.613 386.055C291.038 383.63 292.25 380.695 292.25 377.25V365H169.75V340.5H316.75V389.5C316.75 396.391 314.326 402.197 309.477 406.918C304.628 411.639 298.885 414 292.25 414H194.25V463H169.75ZM340.75 463V340.5H365.25V438.5H487.75C487.75 445.391 485.326 451.197 480.477 455.918C475.628 460.639 469.885 463 463.25 463H340.75ZM511.75 463V389.5H658.75V463H634.25V414H536.25V463H511.75ZM536.25 365C529.359 365 523.553 362.639 518.832 357.918C514.111 353.069 511.75 347.263 511.75 340.5H658.75C658.75 347.391 656.326 353.197 651.477 357.918C646.628 362.639 640.885 365 634.25 365H536.25ZM744 463V426.25L682.75 365V340.5H707.25V352.75L756.25 401.75L805.25 352.75V340.5H829.75V365L768.5 426.25V463H744ZM145.5 659V561H108.75C101.859 561 96.0534 558.639 91.332 553.918C86.6107 549.069 84.25 543.263 84.25 536.5H231.25C231.25 543.391 228.826 549.197 223.977 553.918C219.128 558.639 213.385 561 206.75 561H170V659H145.5ZM279.75 659C272.859 659 267.053 656.639 262.332 651.918C257.611 647.069 255.25 641.263 255.25 634.5H402.25C402.25 641.391 399.826 647.197 394.977 651.918C390.128 656.639 384.385 659 377.75 659H279.75ZM279.75 610C272.859 610 267.053 607.639 262.332 602.918C257.611 598.069 255.25 592.263 255.25 585.5H402.25C402.25 592.391 399.826 598.197 394.977 602.918C390.128 607.639 384.385 610 377.75 610H279.75ZM279.75 561C272.859 561 267.053 558.639 262.332 553.918C257.611 549.069 255.25 543.263 255.25 536.5H402.25C402.25 543.391 399.826 549.197 394.977 553.918C390.128 558.639 384.385 561 377.75 561H279.75ZM426.25 659C426.25 652.237 428.611 646.495 433.332 641.773C438.181 636.924 443.987 634.5 450.75 634.5H548.75V610H426.25V536.5H573.25C573.25 543.391 570.826 549.197 565.977 553.918C561.128 558.639 555.385 561 548.75 561H450.75V585.5H573.25V659H426.25ZM597.25 659V536.5H621.75V634.5H744.25C744.25 641.391 741.826 647.197 736.977 651.918C732.128 656.639 726.385 659 719.75 659H597.25ZM768.25 659V585.5H915.25V659H890.75V610H792.75V659H768.25ZM792.75 561C785.859 561 780.053 558.639 775.332 553.918C770.611 549.069 768.25 543.263 768.25 536.5H915.25C915.25 543.391 912.826 549.197 907.977 553.918C903.128 558.639 897.385 561 890.75 561H792.75Z" fill="black"/>
</svg>
